<svg width="49" height="49" viewBox="0 0 49 49" fill="none" xmlns="http://www.w3.org/2000/svg">
<circle cx="24.686" cy="24.6329" r="24.171" fill="#1D222F"/>
<path d="M24.1386 18.0212C23.2299 17.4019 23.2473 16.8058 23.4093 16.2502C23.583 15.6541 24.1328 15.33 24.7983 15.3416C25.3481 15.3532 25.869 15.7525 26.031 16.2792C26.2336 16.9505 26.0079 17.5003 25.2787 18.0212C25.8227 18.0212 26.3204 18.0154 26.8123 18.0212C27.3158 18.0327 27.8135 18.0617 28.2997 18.2064C29.7176 18.6346 30.713 19.5374 31.3033 20.8859C31.3901 21.0885 31.4943 21.1753 31.72 21.1984C32.889 21.3142 33.8729 22.3096 33.9713 23.415C34.1102 24.9949 33.0742 26.0193 32.0557 26.1929C31.5464 26.2797 31.3728 26.5286 31.1644 26.9337C30.331 28.5426 28.9942 29.4454 27.1653 29.4917C25.5275 29.538 23.8897 29.5091 22.2461 29.4975C20.4867 29.4859 18.791 28.3227 18.1371 26.6906C18.0213 26.3955 17.8882 26.2624 17.541 26.2392C16.5687 26.1755 15.6022 25.2206 15.4286 24.2136C15.2087 22.9288 15.9031 21.7366 17.1301 21.3026C17.321 21.2331 17.5236 21.1868 17.7204 21.1868C17.9287 21.1868 18.0271 21.0827 18.1023 20.9033C18.7505 19.4159 19.8848 18.4957 21.4648 18.1253C21.841 18.0385 22.2287 18.0269 22.6165 18.0212C23.1084 18.0212 23.6061 18.0212 24.1386 18.0212ZM20.2379 23.415C20.1684 24.3757 21.0481 25.0875 21.8352 25.1049C22.7727 25.128 23.5598 24.393 23.5714 23.4439C23.583 22.5295 22.8306 21.754 21.9104 21.754C20.9381 21.7598 20.1858 22.5642 20.2379 23.415ZM29.1446 23.4497C29.1446 22.5179 28.3981 21.754 27.4952 21.754C26.575 21.754 25.8169 22.5064 25.8111 23.4266C25.8053 24.3699 26.5229 25.0875 27.4721 25.0933C28.4328 25.0933 29.1388 24.4046 29.1446 23.4497Z" fill="white"/>
<path d="M24.6826 33.9074C22.819 33.9074 20.9613 33.9074 19.0978 33.9074C18.7274 33.9074 18.6984 33.8785 18.8894 33.5718C20.1974 31.471 22.0667 30.2846 24.561 30.2325C27.0843 30.1804 29.0289 31.2858 30.4178 33.3808C30.5104 33.5197 30.6841 33.6817 30.6088 33.838C30.5336 33.9827 30.3079 33.9017 30.1516 33.9017C28.3286 33.9132 26.5056 33.9074 24.6826 33.9074Z" fill="white"/>
</svg>
