<svg width="49" height="49" viewBox="0 0 49 49" fill="none" xmlns="http://www.w3.org/2000/svg">
<circle cx="24.6738" cy="24.6329" r="24.171" fill="#1D222F"/>
<path d="M24.6738 15.8308C26.7264 15.7487 28.7721 17.1718 29.5247 19.197C30.25 21.1538 29.7026 23.3706 28.1153 24.8142C27.0685 25.7653 26.0285 26.7231 25.0022 27.6878C24.7764 27.8999 24.6122 27.9205 24.3796 27.6947C23.2096 26.5794 21.9302 25.5737 20.8423 24.3763C19.515 22.919 19.1797 21.1675 19.816 19.3133C20.4866 17.3702 21.9097 16.2413 23.9212 15.8718C24.1675 15.8308 24.4275 15.8445 24.6738 15.8308ZM24.6738 23.1106C25.8506 23.1174 26.8427 22.1322 26.8427 20.9691C26.8427 19.8265 25.8438 18.8344 24.6943 18.8344C23.5381 18.8344 22.546 19.7991 22.5254 20.9554C22.5049 22.1048 23.5038 23.1106 24.6738 23.1106Z" fill="white"/>
<path d="M33.4657 31.1978C33.4657 32.0462 32.9526 32.7372 32.1452 32.9904C31.3926 33.2298 30.5306 32.9219 30.079 32.2446C29.949 32.053 29.819 31.9641 29.5795 31.9709C28.7448 31.9846 27.9169 31.9846 27.0822 31.9709C26.8701 31.9709 26.7538 32.0393 26.6512 32.2241C25.7138 33.8388 23.6476 33.8456 22.7171 32.2309C22.6144 32.053 22.4981 31.9709 22.286 31.9709C21.4445 31.9777 20.5961 31.9777 19.7545 31.9709C19.5493 31.9709 19.4261 32.0393 19.3098 32.2104C18.4751 33.4351 16.7646 33.3325 16.0804 32.0325C15.6493 31.2115 15.9436 30.1373 16.7441 29.6241C17.5514 29.111 18.694 29.2957 19.2208 30.0688C19.4124 30.3562 19.6177 30.4452 19.9461 30.4383C20.7124 30.4178 21.4718 30.4246 22.2381 30.4383C22.4639 30.4383 22.6076 30.3767 22.7239 30.1646C23.6407 28.5636 25.7207 28.5568 26.6375 30.1578C26.7538 30.3631 26.8906 30.4383 27.1233 30.4383C27.9306 30.4246 28.7448 30.4246 29.5522 30.4383C29.7985 30.4452 29.9421 30.3631 30.079 30.1578C30.5374 29.4599 31.379 29.1794 32.1795 29.4257C32.9526 29.6515 33.4657 30.3631 33.4657 31.1978ZM25.3581 31.1909C25.3581 30.8146 25.0638 30.5273 24.6807 30.5273C24.2976 30.5273 24.0102 30.8215 24.0102 31.1978C24.0102 31.5741 24.3044 31.8614 24.6875 31.8614C25.0638 31.8614 25.3581 31.5672 25.3581 31.1909Z" fill="white"/>
</svg>
