<svg width="49" height="49" viewBox="0 0 49 49" fill="none" xmlns="http://www.w3.org/2000/svg">
<circle cx="24.6494" cy="24.6329" r="24.171" fill="#1D222F"/>
<path d="M25.5222 25.0657C25.1806 25.8588 24.8695 26.5786 24.5522 27.2924C24.4668 27.4876 24.5949 27.5425 24.717 27.6157C26.059 28.427 27.3401 29.3177 28.5358 30.3364C29.3166 31.0014 30.0547 31.7151 30.6953 32.5264C31.1162 33.0572 31.0674 33.7709 30.5794 34.1674C30.073 34.5761 29.3654 34.4907 28.9262 33.96C27.5353 32.2946 25.8211 31.0197 24.0032 29.8606C23.1248 29.2994 22.1914 28.854 21.2398 28.4453C20.9958 28.3416 20.9165 28.3782 20.8371 28.6283C20.4101 29.9582 20.5992 31.2332 21.0934 32.4959C21.1727 32.6911 21.2764 32.8803 21.3069 33.0938C21.3923 33.6733 21.0812 34.1918 20.5443 34.3687C20.0136 34.5395 19.4341 34.3138 19.1718 33.8014C18.8911 33.2463 18.6837 32.6606 18.5434 32.0567C18.0493 29.9216 18.3604 27.9329 19.5378 26.0662C19.8367 25.5904 20.0197 25.0352 20.2454 24.5167C20.6297 23.6444 21.0019 22.7659 21.3923 21.8936C21.4899 21.6801 21.4899 21.5093 21.3618 21.3018C20.947 20.6308 20.6602 19.8988 20.6053 19.1057C20.5199 17.8247 21.0507 16.8181 22.0145 16.019C22.6489 15.4943 23.3566 15.1405 24.113 14.8965C24.3326 14.8294 24.5522 14.8111 24.7719 14.9087C25.0647 15.0368 25.205 15.2808 25.2111 15.5858C25.2172 15.8909 25.0891 16.1471 24.7963 16.2752C24.5095 16.4033 24.2106 16.507 23.9239 16.6351C23.5823 16.7876 23.2651 16.995 22.9723 17.239C22.2524 17.8369 22.0084 18.6299 22.2707 19.5389C22.3134 19.6731 22.3683 19.8073 22.4171 19.9415C22.5818 20.399 22.8564 20.7223 23.3444 20.9053C24.1801 21.2164 24.9793 21.6252 25.8089 21.9546C26.1993 22.1132 26.4128 22.3755 26.5043 22.7659C26.6325 23.3089 26.7545 23.8518 26.9436 24.3825C27.456 25.8527 28.2002 27.1765 29.28 28.305C29.6399 28.6832 29.6521 29.1469 29.3288 29.4702C28.9933 29.7996 28.548 29.7813 28.1697 29.3909C27.0656 28.2501 26.2603 26.9202 25.6808 25.444C25.6442 25.3403 25.5954 25.2427 25.5222 25.0657Z" fill="white"/>
<path d="M25.7174 16.9949C26.8826 17.001 27.8464 17.977 27.8281 19.1483C27.8159 20.2646 26.8277 21.2163 25.7113 21.2041C24.5278 21.1919 23.6006 20.2463 23.6128 19.0812C23.6189 17.9343 24.5705 16.9949 25.7174 16.9949Z" fill="white"/>
</svg>
