<svg width="13" height="7" viewBox="0 0 13 7" fill="none" xmlns="http://www.w3.org/2000/svg">
<path d="M6.56867 0.220337C4.84454 0.220337 3.12041 0.220337 1.39627 0.220337C0.837569 0.220337 0.440364 0.512785 0.305052 1.01038C0.134821 1.62583 0.536391 2.25001 1.17367 2.35913C1.2435 2.37223 1.31771 2.37659 1.39191 2.37659C4.8489 2.37659 8.30153 2.37659 11.7585 2.37659C12.2605 2.37659 12.6621 2.10597 12.8192 1.68258C13.0811 0.984193 12.601 0.255256 11.8502 0.224702C11.7629 0.220337 11.6756 0.224702 11.5883 0.224702C9.91218 0.220337 8.24043 0.220337 6.56867 0.220337Z" fill="white"/>
<path d="M8.68583 6.57127C9.71158 6.57127 10.7373 6.57563 11.7631 6.57127C12.3305 6.57127 12.7452 6.23954 12.8674 5.70266C13.0202 5.04792 12.5095 4.42374 11.798 4.41501C11.1564 4.40628 10.5191 4.41501 9.87745 4.41501C8.44576 4.41501 7.00971 4.41065 5.57803 4.41501C4.90147 4.41501 4.45189 4.87769 4.46062 5.54115C4.46935 6.13042 4.93202 6.57127 5.56057 6.57127C6.60378 6.57563 7.64262 6.57127 8.68583 6.57127Z" fill="white"/>
</svg>
