<svg width="29" height="22" viewBox="0 0 29 22" fill="none" xmlns="http://www.w3.org/2000/svg">
<path d="M28.2815 11.2608C28.2815 8.02248 28.2815 4.77555 28.2815 1.5372C28.2815 0.954634 28.2815 0.946067 27.6904 0.946067C24.6148 0.946067 21.5478 0.954634 18.4808 0.9375C18.0438 0.9375 17.9239 1.07457 17.9239 1.49436C17.941 4.60421 17.941 7.72263 17.9239 10.8325C17.9239 11.1752 18.0438 11.415 18.2837 11.6549C21.4621 14.8162 24.6234 17.9946 27.8017 21.1558C27.9217 21.2672 28.0245 21.4985 28.1873 21.4385C28.3672 21.37 28.2729 21.1387 28.2729 20.9759C28.2815 17.7375 28.2815 14.4992 28.2815 11.2608Z" fill="#B59410"/>
<path d="M11.1479 11.2515C11.1479 8.01316 11.1479 4.76623 11.1479 1.52787C11.1479 0.945312 11.1479 0.945312 10.5568 0.945312C7.49832 0.945312 4.44843 0.945312 1.38999 0.945312C0.807424 0.945312 0.807425 0.945312 0.807425 1.54501C0.807425 4.64629 0.807425 7.73901 0.798858 10.8403C0.798858 11.1658 0.893094 11.4057 1.12441 11.6285C4.31993 14.8154 7.50688 18.0024 10.7024 21.1893C10.8052 21.2921 10.8994 21.4977 11.0622 21.4378C11.2336 21.3778 11.1479 21.1551 11.1479 21.0094C11.1479 17.7625 11.1479 14.507 11.1479 11.2515Z" fill="#B59410"/>
</svg>
