<svg width="49" height="49" viewBox="0 0 49 49" fill="none" xmlns="http://www.w3.org/2000/svg">
<circle cx="24.6616" cy="24.6329" r="24.171" fill="#1D222F"/>
<path d="M26.1886 18.3515C26.1886 18.909 26.1886 19.472 26.1886 20.0295C26.1886 20.3488 26.1669 20.3651 25.8692 20.2839C23.6013 19.6614 21.3063 20.7602 20.424 22.9632C19.2765 25.832 21.2521 28.8306 24.1263 29.1338C24.7271 29.1987 25.3171 29.15 25.8909 28.9768C26.0966 28.9172 26.1886 28.9443 26.1886 29.1879C26.1832 30.3516 26.1886 31.5154 26.1832 32.6791C26.1832 33.0851 25.9667 33.2962 25.5607 33.3016C24.9382 33.307 24.3158 33.307 23.6933 33.3016C23.2711 33.2962 23.0762 33.0851 23.0708 32.652C23.06 32.1432 23.06 32.1432 22.562 32.0025C21.8746 31.8077 21.2197 31.5208 20.6134 31.1419C20.4727 31.0553 20.3861 31.0661 20.267 31.1852C19.6608 31.7968 19.5309 31.7914 18.9355 31.1906C18.5728 30.8279 18.2048 30.4653 17.8475 30.0972C17.5444 29.7887 17.5498 29.5181 17.8421 29.2041C18.2102 28.8144 18.2048 28.8144 17.9395 28.3435C17.5985 27.7427 17.355 27.104 17.1926 26.4328C17.1439 26.2379 17.0735 26.1513 16.8678 26.1676C15.9855 26.2271 15.9531 25.9456 15.9693 25.2528C15.9855 24.7278 15.9693 24.2081 15.9747 23.6831C15.9801 23.2717 16.1479 23.1039 16.543 23.0931C17.1006 23.0823 17.1006 23.0823 17.2521 22.5627C17.4578 21.9077 17.7068 21.269 18.0857 20.6898C18.1994 20.5166 18.2102 20.3867 18.037 20.2514C17.9774 20.2081 17.9341 20.1486 17.8854 20.0999C17.539 19.7426 17.539 19.4828 17.8908 19.1256C18.3022 18.7088 18.719 18.2974 19.1358 17.8806C19.4714 17.5504 19.7258 17.5504 20.0668 17.8698C20.4294 18.2108 20.4294 18.2108 20.8516 17.9781C21.4687 17.6371 22.1182 17.361 22.8056 17.204C23.0113 17.1553 23.1033 17.0633 23.0762 16.8522C23.0654 16.7656 23.0708 16.6736 23.0762 16.5816C23.0871 16.1756 23.2873 15.9699 23.6987 15.9645C24.3212 15.9591 24.9437 15.9591 25.5661 15.9645C25.9721 15.9699 26.1832 16.1864 26.1886 16.587C26.194 17.1824 26.1886 17.767 26.1886 18.3515Z" fill="white"/>
<path d="M26.1885 24.6358C26.1885 25.5993 26.1777 26.5627 26.1939 27.5262C26.1993 27.8023 26.0965 27.9268 25.8475 28.0134C24.3644 28.5438 22.681 28.0404 21.7446 26.7684C20.7866 25.4694 20.7974 23.7319 21.7771 22.4653C22.7298 21.2203 24.3536 20.7386 25.8204 21.2474C26.0857 21.3394 26.2047 21.4639 26.1993 21.767C26.1777 22.7251 26.1885 23.6777 26.1885 24.6358Z" fill="white"/>
<path d="M28.3699 21.7455C28.3807 21.7455 28.3861 21.7455 28.397 21.7455C29.2305 21.8862 29.9071 21.5993 30.4646 20.9877C30.5621 20.8794 30.6216 20.7982 30.6054 20.6413C30.535 20.1 30.6811 19.6399 31.1358 19.3043C31.6663 18.9092 32.3808 18.9417 32.8841 19.3638C33.3388 19.7482 33.4795 20.4681 33.2143 21.0202C32.9383 21.5885 32.2779 21.9187 31.65 21.7455C31.3848 21.6751 31.2278 21.7509 31.0492 21.9078C30.7894 22.1406 30.5134 22.3625 30.2481 22.5899C30.0695 22.7414 29.8692 22.8172 29.6311 22.8172C28.9004 22.8064 28.1696 22.8064 27.4389 22.8172C27.2007 22.8226 27.1304 22.7306 27.1304 22.5032C27.1304 21.7509 27.1196 21.7509 27.8882 21.7509C28.0451 21.7455 28.2075 21.7455 28.3699 21.7455Z" fill="white"/>
<path d="M28.5756 26.4598C28.9166 26.4598 29.263 26.4707 29.604 26.4544C29.8638 26.4436 30.0749 26.5302 30.2697 26.698C30.5458 26.9416 30.8381 27.1689 31.1141 27.4179C31.2603 27.5478 31.3956 27.5857 31.6013 27.5316C32.332 27.3367 33.0573 27.7318 33.2847 28.4247C33.512 29.1175 33.1872 29.8699 32.489 30.1351C31.4714 30.5248 30.5512 29.7562 30.6108 28.9172C30.6378 28.5004 30.4592 28.2839 30.1831 28.0241C29.7555 27.6182 29.3009 27.4558 28.7217 27.5099C28.2941 27.5478 27.8557 27.5099 27.4226 27.5207C27.2224 27.5261 27.1195 27.4666 27.1303 27.2447C27.1412 27.0661 27.1412 26.882 27.1303 26.7034C27.1195 26.5194 27.2007 26.4436 27.3847 26.449C27.7853 26.4652 28.1804 26.4598 28.5756 26.4598Z" fill="white"/>
<path d="M28.9437 24.0892C29.4309 24.0892 29.918 24.0838 30.4052 24.0946C30.6 24.1 30.7137 24.0297 30.8219 23.8673C31.1413 23.3747 31.6176 23.2069 32.1805 23.2773C32.6839 23.3422 33.0412 23.6237 33.2414 24.0946C33.5229 24.7496 33.2631 25.5073 32.646 25.8483C32.0182 26.1948 31.2225 26.0161 30.8274 25.4153C30.7137 25.2421 30.5892 25.1826 30.3889 25.1826C29.4255 25.1934 28.4566 25.1772 27.4931 25.188C27.2333 25.1934 27.125 25.123 27.1304 24.8416C27.1413 24.0892 27.1304 24.0892 27.8936 24.0892C28.2401 24.0892 28.5919 24.0892 28.9437 24.0892Z" fill="white"/>
<path d="M27.1304 17.5125C27.1358 16.9441 27.0762 16.9874 27.6554 16.9874C27.7366 16.9874 27.8178 16.9766 27.899 16.9874C28.1642 17.0199 28.3428 16.9387 28.5052 16.7005C28.8462 16.2026 29.4795 16.0239 30.0424 16.2134C30.627 16.4137 31.0113 16.9495 31.0005 17.5449C30.9897 18.1241 30.5837 18.6762 30.0587 18.8386C29.4524 19.028 28.8192 18.8386 28.4836 18.319C28.3428 18.1024 28.175 18.0375 27.9477 18.0483C27.8557 18.0537 27.7691 18.0483 27.6771 18.0483C27.0708 18.0483 27.1358 18.1133 27.1304 17.5125Z" fill="white"/>
<path d="M29.6094 30.3571C30.2698 30.3625 30.8056 30.8009 30.9572 31.4667C31.0925 32.0567 30.7732 32.7116 30.2211 32.9822C29.6203 33.2745 28.8949 33.1446 28.5269 32.6033C28.3374 32.3219 28.1209 32.284 27.8286 32.284C27.0113 32.284 27.1412 32.4031 27.1304 31.5857C27.125 31.2231 27.1304 31.2231 27.4876 31.2177C27.6067 31.2177 27.7204 31.2123 27.8395 31.2177C28.1263 31.2339 28.3428 31.169 28.5161 30.8929C28.7434 30.5303 29.1764 30.3516 29.6094 30.3571Z" fill="white"/>
</svg>
